<svg xmlns="http://www.w3.org/2000/svg" xmlns:xlink="http://www.w3.org/1999/xlink" viewBox="0 0 350 186.78"><defs><style>.cls-1{fill:url(#Degradado_sin_nombre_20);}.cls-2{fill:url(#Degradado_sin_nombre_27);}.cls-3{fill:url(#Degradado_sin_nombre_26);}.cls-4{font-size:38.3px;fill:#fff;font-family:Raleway-Light, Raleway Light;font-weight:300;}.cls-5{letter-spacing:-0.01em;}</style><linearGradient id="Degradado_sin_nombre_20" x1="-43.18" y1="144.63" x2="361.9" y2="0.57" gradientUnits="userSpaceOnUse"><stop offset="0" stop-color="#999"/><stop offset="1" stop-color="#f2f2f2"/></linearGradient><linearGradient id="Degradado_sin_nombre_27" x1="8.9" y1="-1.04" x2="45.91" y2="84.24" gradientUnits="userSpaceOnUse"><stop offset="0" stop-color="#999" stop-opacity="0.7"/><stop offset="0.34" stop-color="#b2b2b2" stop-opacity="0.7"/><stop offset="1" stop-color="#f2f2f2" stop-opacity="0.7"/></linearGradient><linearGradient id="Degradado_sin_nombre_26" x1="161.05" y1="149.04" x2="111.15" y2="13.15" gradientUnits="userSpaceOnUse"><stop offset="0" stop-color="#f2f2f2" stop-opacity="0.7"/><stop offset="0.66" stop-color="#b2b2b2" stop-opacity="0.7"/><stop offset="1" stop-color="#999" stop-opacity="0.7"/></linearGradient></defs><g id="Capa_2" data-name="Capa 2"><g id="Capa_1-2" data-name="Capa 1"><path class="cls-1" d="M176,129.64a46.79,46.79,0,0,1-65.4-42.94V51.77a1.21,1.21,0,0,0-2.33-.48L73,126.62a11.94,11.94,0,0,1-10.82,6.88h-.15a12,12,0,0,1-10.8-7.17L15.21,43.65A11.94,11.94,0,1,1,37.1,34.09L62.6,92.56,88.18,37.94a24.31,24.31,0,0,1,46.34,10.32V86.7a22.89,22.89,0,0,0,39.66,15.6v19.42A17.85,17.85,0,0,0,176,129.64ZM301.57,25.84a48.29,48.29,0,0,0-36.49,16.64,48.41,48.41,0,0,0-84.93,31.79v47.45a11.95,11.95,0,0,0,23.89,0V74.27a24.55,24.55,0,0,1,49.09,0v47.45a11.95,11.95,0,0,0,23.89,0V74.27a24.55,24.55,0,0,1,49.09,0V91.8a11.95,11.95,0,0,0,23.89,0V74.27A48.49,48.49,0,0,0,301.57,25.84ZM338,110.15a12,12,0,1,0,12,12A12,12,0,0,0,338,110.15ZM12,0a12,12,0,1,0,12,12A12,12,0,0,0,12,0Z"/><path class="cls-2" d="M62.6,92.56l-7.69,16.81a6.07,6.07,0,0,1-11.08-.11l-1-2.34L15.21,43.65A11.94,11.94,0,1,1,37.1,34.09Z"/><path class="cls-3" d="M176,129.64a46.56,46.56,0,0,1-18.56,3.86c-25.76,0-46.84-21.89-46.84-47.66V51.77a1.22,1.22,0,0,0-1.21-1.22,1.19,1.19,0,0,0-1,.58l6.07-13a13.51,13.51,0,0,1,8.68-7.29A5.66,5.66,0,0,1,129,32.8a24.23,24.23,0,0,1,5.55,15.46V86.7a22.89,22.89,0,0,0,39.66,15.6v19.42A17.85,17.85,0,0,0,176,129.64Z"/><text class="cls-4" transform="translate(256.7 177.21)">offi<tspan class="cls-5" x="52.24" y="0">c</tspan><tspan x="69.17" y="0">e</tspan></text></g></g></svg>