<svg xmlns="http://www.w3.org/2000/svg" viewBox="0 0 29.37 44.41"><defs><style>.cls-1{fill:#0f4f80;}</style></defs><g id="Capa_2" data-name="Capa 2"><g id="Capa_1-2" data-name="Capa 1"><path class="cls-1" d="M19.57,44.41a1.79,1.79,0,0,1-.51-.07h0L1.38,39.46A1.88,1.88,0,0,1,0,37.65V6.32A1.87,1.87,0,0,1,1.42,4.5L19.1.05A1.92,1.92,0,0,1,20.72.4a1.85,1.85,0,0,1,.72,1.48V42.53A1.85,1.85,0,0,1,20.7,44,1.82,1.82,0,0,1,19.57,44.41Zm0-1.89-.25.91.26-.91Zm0-40.64L1.88,6.33V37.65l17.67,4.87Z"/><path class="cls-1" d="M27.49,39.58H22.88a.95.95,0,0,1,0-1.89h4.61V6.74h-4.6a.95.95,0,0,1,0-1.89h4.61a1.88,1.88,0,0,1,1.88,1.88v31A1.89,1.89,0,0,1,27.49,39.58Z"/><path class="cls-1" d="M16.15,24.68a2.48,2.48,0,1,1,2.48-2.48A2.48,2.48,0,0,1,16.15,24.68Zm0-3.06a.59.59,0,0,0,0,1.17.59.59,0,1,0,0-1.17Z"/></g></g></svg>