<svg xmlns="http://www.w3.org/2000/svg" viewBox="0 0 21.53 23.22"><defs><style>.cls-1{fill:#0f4f80;}</style></defs><g id="Capa_2" data-name="Capa 2"><g id="Capa_1-2" data-name="Capa 1"><path class="cls-1" d="M10.91,23.22a10.88,10.88,0,0,1-5.66-1.53c-.27-.16-.53-.35-.79-.53A10.53,10.53,0,0,1,1.57,18,10.25,10.25,0,0,1,.43,15.48,11.47,11.47,0,0,1,0,12.88a10.57,10.57,0,0,1,1.15-5.3,10.33,10.33,0,0,1,2-2.76A10.46,10.46,0,0,1,6,2.78a3,3,0,0,1,.86-.32,1.32,1.32,0,0,1,1.43,1.2A1.26,1.26,0,0,1,7.55,5,8.58,8.58,0,0,0,5.67,6.1a8.21,8.21,0,0,0-3,5.27,8.3,8.3,0,0,0,.18,3.06,7.88,7.88,0,0,0,1.45,3,8.07,8.07,0,0,0,2.36,2.07,8.1,8.1,0,0,0,6.56.72,7.71,7.71,0,0,0,2.6-1.4,8.34,8.34,0,0,0,1.53-1.61,8.08,8.08,0,0,0,1-7.55A7.93,7.93,0,0,0,17,7.25,8.08,8.08,0,0,0,14.3,5.12l-.4-.2A1.3,1.3,0,0,1,15,2.57a10.6,10.6,0,0,1,2.56,1.55A11,11,0,0,1,19.38,6a10.64,10.64,0,0,1,1.69,3.32A11.23,11.23,0,0,1,21.52,12a10.75,10.75,0,0,1-.32,3.15A10.56,10.56,0,0,1,20,17.91,10.84,10.84,0,0,1,12.77,23,12.09,12.09,0,0,1,10.91,23.22Z"/><path class="cls-1" d="M12.08,6v4.62a1.32,1.32,0,0,1-2.6.35,1.53,1.53,0,0,1,0-.3V1.33A1.25,1.25,0,0,1,10.19.14a1.32,1.32,0,0,1,1.89,1.15c0,.48,0,1,0,1.42Z"/></g></g></svg>